<svg width="1731" height="449" viewBox="0 0 1731 449" fill="none" xmlns="http://www.w3.org/2000/svg">
<path d="M115.12 259.479C26.0414 250.058 1.25725 207.305 0 187.107H103.805V174H182.356V371.552H88.226V341.729C162.743 307.386 137.204 272.586 115.12 259.479Z" fill="#BD1E22"/>
<path d="M329 174H191.473V371.552H281.935V340.097C239.177 323.526 230.615 295.344 231.678 283.325C240.485 222.41 296.053 215.876 322.736 220.223L329 207.181V174Z" fill="#20211B"/>
<path d="M513.208 372.136C489.712 372.136 471.437 365.847 458.384 353.268C445.568 340.452 439.16 322.652 439.16 299.868V221.904H406.408V175.624H408.188C418.156 175.624 425.751 173.132 430.972 168.148C436.431 163.164 439.16 155.688 439.16 145.72V131.48H492.56V175.624H538.128V221.904H492.56V296.308C492.56 302.953 493.747 308.531 496.12 313.04C498.493 317.312 502.172 320.516 507.156 322.652C512.14 324.788 518.311 325.856 525.668 325.856C527.329 325.856 529.228 325.737 531.364 325.5C533.5 325.263 535.755 325.025 538.128 324.788V370C534.568 370.475 530.533 370.949 526.024 371.424C521.515 371.899 517.243 372.136 513.208 372.136ZM664.828 374.272C645.367 374.272 627.804 369.881 612.14 361.1C596.713 352.081 584.372 339.859 575.116 324.432C566.097 309.005 561.588 291.68 561.588 272.456C561.588 253.232 566.097 236.025 575.116 220.836C584.135 205.409 596.476 193.305 612.14 184.524C627.804 175.743 645.367 171.352 664.828 171.352C679.305 171.352 692.715 173.844 705.056 178.828C717.397 183.812 727.959 190.813 736.74 199.832C745.521 208.613 751.811 219.056 755.608 231.16L709.328 251.096C706.005 241.365 700.309 233.652 692.24 227.956C684.408 222.26 675.271 219.412 664.828 219.412C655.572 219.412 647.265 221.667 639.908 226.176C632.788 230.685 627.092 236.975 622.82 245.044C618.785 253.113 616.768 262.369 616.768 272.812C616.768 283.255 618.785 292.511 622.82 300.58C627.092 308.649 632.788 314.939 639.908 319.448C647.265 323.957 655.572 326.212 664.828 326.212C675.508 326.212 684.764 323.364 692.596 317.668C700.428 311.972 706.005 304.259 709.328 294.528L755.608 314.82C752.048 326.212 745.877 336.417 737.096 345.436C728.315 354.455 717.753 361.575 705.412 366.796C693.071 371.78 679.543 374.272 664.828 374.272Z" fill="#BD1E22"/>
<path d="M814.025 370V221.904H781.273V175.624H814.025V172.776C814.025 157.349 816.992 144.296 822.925 133.616C829.096 122.936 837.877 114.748 849.269 109.052C860.661 103.356 874.427 100.508 890.565 100.508C893.651 100.508 896.973 100.745 900.533 101.22C904.093 101.457 907.06 101.813 909.433 102.288V147.856C907.06 147.381 904.924 147.144 903.025 147.144C901.364 146.907 899.584 146.788 897.685 146.788C887.717 146.788 880.123 149.043 874.901 153.552C869.917 157.824 867.425 164.232 867.425 172.776V175.624H909.077V221.904H867.425V370H814.025ZM1029.2 374.272C1009.97 374.272 992.41 369.881 976.509 361.1C960.845 352.319 948.266 340.333 938.773 325.144C929.517 309.717 924.889 292.273 924.889 272.812C924.889 253.113 929.517 235.669 938.773 220.48C948.266 205.291 960.845 193.305 976.509 184.524C992.41 175.743 1009.97 171.352 1029.2 171.352C1048.42 171.352 1065.86 175.743 1081.53 184.524C1097.19 193.305 1109.65 205.291 1118.91 220.48C1128.4 235.669 1133.15 253.113 1133.15 272.812C1133.15 292.273 1128.4 309.717 1118.91 325.144C1109.65 340.333 1097.19 352.319 1081.53 361.1C1065.86 369.881 1048.42 374.272 1029.2 374.272ZM1029.2 326.212C1038.93 326.212 1047.35 323.957 1054.47 319.448C1061.83 314.939 1067.53 308.649 1071.56 300.58C1075.83 292.511 1077.97 283.255 1077.97 272.812C1077.97 262.369 1075.83 253.232 1071.56 245.4C1067.53 237.331 1061.83 231.041 1054.47 226.532C1047.35 221.785 1038.93 219.412 1029.2 219.412C1019.47 219.412 1010.92 221.785 1003.56 226.532C996.207 231.041 990.393 237.331 986.121 245.4C982.086 253.232 980.069 262.369 980.069 272.812C980.069 283.255 982.086 292.511 986.121 300.58C990.393 308.649 996.207 314.939 1003.56 319.448C1010.92 323.957 1019.47 326.212 1029.2 326.212ZM1164.61 370V175.624H1214.45V222.26L1210.89 215.496C1215.16 199.12 1222.16 188.084 1231.89 182.388C1241.86 176.455 1253.61 173.488 1267.14 173.488H1278.53V219.768H1261.8C1248.74 219.768 1238.18 223.803 1230.11 231.872C1222.04 239.704 1218.01 250.859 1218.01 265.336V370H1164.61ZM1397.34 448.32C1382.39 448.32 1368.5 445.828 1355.69 440.844C1342.87 435.86 1331.84 428.859 1322.58 419.84C1313.56 411.059 1307.03 400.616 1303 388.512L1352.48 371.068C1355.09 380.087 1360.43 387.207 1368.5 392.428C1376.57 397.649 1386.18 400.26 1397.34 400.26C1406.12 400.26 1413.72 398.599 1420.12 395.276C1426.53 392.191 1431.4 387.563 1434.72 381.392C1438.28 375.221 1440.06 367.983 1440.06 359.676V315.176L1450.38 327.992C1443.74 338.909 1435.19 347.097 1424.75 352.556C1414.31 357.777 1402.09 360.388 1388.08 360.388C1370.05 360.388 1353.91 356.353 1339.67 348.284C1325.43 339.977 1314.27 328.704 1306.2 314.464C1298.13 299.987 1294.1 283.611 1294.1 265.336C1294.1 247.061 1298.13 230.923 1306.2 216.92C1314.27 202.68 1325.31 191.525 1339.31 183.456C1353.31 175.387 1369.22 171.352 1387.02 171.352C1401.02 171.352 1413.24 174.2 1423.68 179.896C1434.13 185.355 1443.03 193.78 1450.38 205.172L1443.62 217.988V175.624H1493.46V359.676C1493.46 376.764 1489.31 391.953 1481 405.244C1472.69 418.772 1461.3 429.333 1446.82 436.928C1432.58 444.523 1416.09 448.32 1397.34 448.32ZM1395.56 311.972C1404.58 311.972 1412.41 310.073 1419.06 306.276C1425.7 302.479 1430.8 297.139 1434.36 290.256C1438.16 283.373 1440.06 275.304 1440.06 266.048C1440.06 256.792 1438.16 248.723 1434.36 241.84C1430.57 234.72 1425.34 229.261 1418.7 225.464C1412.05 221.429 1404.34 219.412 1395.56 219.412C1386.54 219.412 1378.47 221.429 1371.35 225.464C1364.47 229.261 1359.01 234.72 1354.98 241.84C1351.18 248.723 1349.28 256.792 1349.28 266.048C1349.28 275.067 1351.18 283.017 1354.98 289.9C1359.01 296.783 1364.47 302.241 1371.35 306.276C1378.47 310.073 1386.54 311.972 1395.56 311.972ZM1626.4 374.272C1605.76 374.272 1587.84 369.763 1572.65 360.744C1557.46 351.488 1545.71 339.147 1537.4 323.72C1529.1 308.293 1524.94 291.205 1524.94 272.456C1524.94 252.995 1529.22 235.669 1537.76 220.48C1546.54 205.291 1558.29 193.305 1573 184.524C1587.72 175.743 1604.33 171.352 1622.84 171.352C1638.27 171.352 1651.92 173.844 1663.78 178.828C1675.65 183.575 1685.62 190.339 1693.69 199.12C1701.99 207.901 1708.28 218.107 1712.56 229.736C1716.83 241.128 1718.96 253.588 1718.96 267.116C1718.96 270.913 1718.73 274.711 1718.25 278.508C1718.01 282.068 1717.42 285.153 1716.47 287.764H1570.87V248.604H1686.21L1660.94 267.116C1663.31 256.911 1663.19 247.892 1660.58 240.06C1657.97 231.991 1653.34 225.701 1646.7 221.192C1640.29 216.445 1632.34 214.072 1622.84 214.072C1613.59 214.072 1605.64 216.327 1598.99 220.836C1592.35 225.345 1587.36 231.991 1584.04 240.772C1580.72 249.553 1579.41 260.233 1580.12 272.812C1579.17 283.729 1580.48 293.341 1584.04 301.648C1587.6 309.955 1593.06 316.481 1600.42 321.228C1607.77 325.737 1616.67 327.992 1627.12 327.992C1636.61 327.992 1644.68 326.093 1651.32 322.296C1658.21 318.499 1663.55 313.277 1667.34 306.632L1710.06 326.924C1706.27 336.417 1700.21 344.724 1691.91 351.844C1683.84 358.964 1674.23 364.541 1663.07 368.576C1651.92 372.373 1639.69 374.272 1626.4 374.272Z" fill="#20211B"/>
</svg>
